<svg width="16" height="16" viewBox="0 0 16 16" fill="none" xmlns="http://www.w3.org/2000/svg">
<path d="M11.9375 11.5938C12.875 10.5938 13.3438 9.39583 13.3438 8C13.3438 6.89583 13.0312 5.89583 12.4062 5C11.8021 4.10417 11 3.45833 10 3.0625V3.34375C10 3.69792 9.86458 4.01042 9.59375 4.28125C9.32292 4.53125 9.01042 4.65625 8.65625 4.65625H7.34375V6C7.34375 6.1875 7.27083 6.34375 7.125 6.46875C7 6.59375 6.84375 6.65625 6.65625 6.65625H5.34375V8H9.34375C9.53125 8 9.6875 8.0625 9.8125 8.1875C9.9375 8.3125 10 8.46875 10 8.65625V10.6562H10.6562C11.2812 10.6562 11.7083 10.9688 11.9375 11.5938ZM7.34375 13.2812V12C6.98958 12 6.67708 11.8646 6.40625 11.5938C6.13542 11.3229 6 11.0104 6 10.6562V10L2.8125 6.8125C2.70833 7.22917 2.65625 7.625 2.65625 8C2.65625 9.35417 3.10417 10.5312 4 11.5312C4.91667 12.5312 6.03125 13.1146 7.34375 13.2812ZM3.28125 3.3125C4.59375 2 6.16667 1.34375 8 1.34375C9.83333 1.34375 11.3958 2 12.6875 3.3125C14 4.60417 14.6562 6.16667 14.6562 8C14.6562 9.83333 14 11.4062 12.6875 12.7188C11.3958 14.0104 9.83333 14.6562 8 14.6562C6.16667 14.6562 4.59375 14.0104 3.28125 12.7188C1.98958 11.4062 1.34375 9.83333 1.34375 8C1.34375 6.16667 1.98958 4.60417 3.28125 3.3125Z" fill="#9AA0A6"/>
</svg>
